<svg width="1728" height="531" viewBox="0 0 1728 531" fill="none" xmlns="http://www.w3.org/2000/svg">
<rect width="1776" height="536" fill="#3087E6"/>
<mask id="mask0_153_2" style="mask-type:alpha" maskUnits="userSpaceOnUse" x="0" y="0" width="1776" height="536">
<rect width="1776" height="536" fill="#3087E6"/>
</mask>
<g mask="url(#mask0_153_2)">
<path d="M-155.416 530.931L2.61672 488.586L28.1424 583.849L-129.891 626.194L-155.416 530.931Z" fill="white" fill-opacity="0.05"/>
<path d="M28.6549 -11.0264L186.688 -53.3712L212.214 41.8918L54.1805 84.2366L28.6549 -11.0264Z" fill="white" fill-opacity="0.05"/>
<path d="M90.234 218.791L248.267 176.446L273.793 271.709L115.76 314.054L90.234 218.791Z" fill="white" fill-opacity="0.05"/>
<path d="M151.814 448.609L309.847 406.265L335.373 501.527L177.339 543.872L151.814 448.609Z" fill="white" fill-opacity="0.05"/>
<path d="M335.884 -93.3486L493.918 -135.693L519.443 -40.4305L361.41 1.91435L335.884 -93.3486Z" fill="white" fill-opacity="0.05"/>
<path d="M397.464 136.469L555.497 94.1239L581.023 189.387L422.99 231.732L397.464 136.469Z" fill="white" fill-opacity="0.05"/>
<path d="M459.044 366.287L617.077 323.942L642.603 419.205L484.569 461.55L459.044 366.287Z" fill="white" fill-opacity="0.05"/>
<path d="M704.694 54.1475L862.728 11.8026L888.253 107.066L730.22 149.41L704.694 54.1475Z" fill="white" fill-opacity="0.05"/>
<path d="M766.274 283.965L924.307 241.62L949.833 336.883L791.8 379.228L766.274 283.965Z" fill="white" fill-opacity="0.05"/>
<path d="M827.853 513.783L985.886 471.438L1011.41 566.701L853.379 609.046L827.853 513.783Z" fill="white" fill-opacity="0.05"/>
<path d="M1011.92 -28.1748L1169.96 -70.5197L1195.48 24.7433L1037.45 67.0882L1011.92 -28.1748Z" fill="white" fill-opacity="0.05"/>
<path d="M1073.5 201.643L1231.54 159.298L1257.06 254.561L1099.03 296.906L1073.5 201.643Z" fill="white" fill-opacity="0.05"/>
<path d="M1135.08 431.461L1293.12 389.116L1318.64 484.379L1160.61 526.724L1135.08 431.461Z" fill="white" fill-opacity="0.05"/>
<path d="M1380.73 119.32L1538.77 76.9755L1564.29 172.238L1406.26 214.583L1380.73 119.32Z" fill="white" fill-opacity="0.05"/>
<path d="M1442.31 349.139L1600.35 306.794L1625.87 402.057L1467.84 444.402L1442.31 349.139Z" fill="white" fill-opacity="0.05"/>
<path d="M1687.96 36.999L1846 -5.34584L1871.52 89.9171L1713.49 132.262L1687.96 36.999Z" fill="white" fill-opacity="0.05"/>
<path fill-rule="evenodd" clip-rule="evenodd" d="M37.2161 -126.667L-213.126 -59.588L-192.349 17.9516L57.9928 -49.1274L37.2161 -126.667ZM-224.362 -66.0752L-198.837 29.1878L69.2289 -42.6402L43.7033 -137.903L-224.362 -66.0752Z" fill="white" fill-opacity="0.05"/>
<path fill-rule="evenodd" clip-rule="evenodd" d="M98.7952 103.15L-151.547 170.229L-130.77 247.769L119.572 180.69L98.7952 103.15ZM-162.783 163.742L-137.258 259.005L130.808 187.177L105.282 91.9142L-162.783 163.742Z" fill="white" fill-opacity="0.05"/>
<path fill-rule="evenodd" clip-rule="evenodd" d="M160.375 332.968L-89.9673 400.047L-69.1906 477.586L181.152 410.507L160.375 332.968ZM-101.203 393.56L-75.6778 488.823L192.388 416.995L166.862 321.732L-101.203 393.56Z" fill="white" fill-opacity="0.05"/>
<path fill-rule="evenodd" clip-rule="evenodd" d="M406.025 20.8271L155.683 87.9061L176.46 165.446L426.802 98.3668L406.025 20.8271ZM144.447 81.4189L169.973 176.682L438.038 104.854L412.513 9.59099L144.447 81.4189Z" fill="white" fill-opacity="0.05"/>
<path fill-rule="evenodd" clip-rule="evenodd" d="M467.605 250.646L217.263 317.724L238.04 395.264L488.382 328.185L467.605 250.646ZM206.027 311.237L231.552 406.5L499.618 334.672L474.092 239.409L206.027 311.237Z" fill="white" fill-opacity="0.05"/>
<path fill-rule="evenodd" clip-rule="evenodd" d="M529.185 480.464L278.843 547.543L299.619 625.082L549.961 558.003L529.185 480.464ZM267.606 541.056L293.132 636.319L561.198 564.491L535.672 469.228L267.606 541.056Z" fill="white" fill-opacity="0.05"/>
<path fill-rule="evenodd" clip-rule="evenodd" d="M713.256 -61.4941L462.913 5.58485L483.69 83.1245L734.032 16.0455L713.256 -61.4941ZM451.677 -0.902344L477.203 94.3606L745.268 22.5327L719.743 -72.7303L451.677 -0.902344Z" fill="white" fill-opacity="0.05"/>
<path fill-rule="evenodd" clip-rule="evenodd" d="M774.835 168.324L524.493 235.403L545.27 312.943L795.612 245.864L774.835 168.324ZM513.257 228.916L538.783 324.179L806.848 252.351L781.322 157.088L513.257 228.916Z" fill="white" fill-opacity="0.05"/>
<path fill-rule="evenodd" clip-rule="evenodd" d="M836.414 398.142L586.072 465.221L606.849 542.76L857.191 475.681L836.414 398.142ZM574.836 458.733L600.362 553.996L868.427 482.168L842.902 386.905L574.836 458.733Z" fill="white" fill-opacity="0.05"/>
<path fill-rule="evenodd" clip-rule="evenodd" d="M1020.49 -143.816L770.144 -76.7374L790.92 0.802222L1041.26 -66.2768L1020.49 -143.816ZM758.907 -83.2246L784.433 12.0384L1052.5 -59.7896L1026.97 -155.053L758.907 -83.2246Z" fill="white" fill-opacity="0.05"/>
<path fill-rule="evenodd" clip-rule="evenodd" d="M1082.07 86.001L831.723 153.08L852.5 230.62L1102.84 163.541L1082.07 86.001ZM820.487 146.593L846.013 241.856L1114.08 170.028L1088.55 74.7648L820.487 146.593Z" fill="white" fill-opacity="0.05"/>
<path fill-rule="evenodd" clip-rule="evenodd" d="M1143.64 315.819L893.302 382.898L914.079 460.438L1164.42 393.359L1143.64 315.819ZM882.066 376.411L907.592 471.674L1175.66 399.846L1150.13 304.583L882.066 376.411Z" fill="white" fill-opacity="0.05"/>
<path fill-rule="evenodd" clip-rule="evenodd" d="M1389.3 3.67968L1138.95 70.7587L1159.73 148.298L1410.07 81.2193L1389.3 3.67968ZM1127.72 64.2715L1153.24 159.534L1421.31 87.7065L1395.78 -7.55647L1127.72 64.2715Z" fill="white" fill-opacity="0.05"/>
<path fill-rule="evenodd" clip-rule="evenodd" d="M1450.87 233.498L1200.53 300.577L1221.31 378.117L1471.65 311.038L1450.87 233.498ZM1189.3 294.09L1214.82 389.353L1482.89 317.525L1457.36 222.262L1189.3 294.09Z" fill="white" fill-opacity="0.05"/>
<path fill-rule="evenodd" clip-rule="evenodd" d="M1512.45 463.315L1262.11 530.394L1282.89 607.934L1533.23 540.855L1512.45 463.315ZM1250.88 523.907L1276.4 619.17L1544.47 547.342L1518.94 452.079L1250.88 523.907Z" fill="white" fill-opacity="0.05"/>
<path fill-rule="evenodd" clip-rule="evenodd" d="M1696.53 -78.6426L1446.18 -11.5636L1466.96 65.9761L1717.3 -1.10295L1696.53 -78.6426ZM1434.95 -18.0508L1460.47 77.2122L1728.54 5.38424L1703.01 -89.8787L1434.95 -18.0508Z" fill="white" fill-opacity="0.05"/>
<path fill-rule="evenodd" clip-rule="evenodd" d="M1758.1 151.176L1507.76 218.255L1528.54 295.794L1778.88 228.715L1758.1 151.176ZM1496.53 211.768L1522.05 307.031L1790.12 235.203L1764.59 139.94L1496.53 211.768Z" fill="white" fill-opacity="0.05"/>
<path fill-rule="evenodd" clip-rule="evenodd" d="M1819.68 380.993L1569.34 448.072L1590.12 525.612L1840.46 458.533L1819.68 380.993ZM1558.11 441.585L1583.63 536.848L1851.7 465.02L1826.17 369.757L1558.11 441.585Z" fill="white" fill-opacity="0.05"/>
</g>
</svg>
