<svg width="16" height="16" viewBox="0 0 16 16" fill="none" xmlns="http://www.w3.org/2000/svg">
<path fill-rule="evenodd" clip-rule="evenodd" d="M15.4711 8.23828H0.528926V12.8664H15.4711V8.23828ZM0 7.70935V13.3953H16V7.70935H0Z" fill="black"/>
<path d="M1.89222 9.23338H2.28597L3.52919 11.2272V9.23338H3.84586V11.6947H3.47223L2.21057 9.70252V11.6947H1.89222V9.23338ZM5.63531 10.686L5.26167 9.59864L4.86457 10.686H5.63531ZM5.08742 9.23338H5.4644L6.35745 11.6947H5.99219L5.74254 10.9575H4.76907L4.50266 11.6947H4.16086L5.08742 9.23338ZM8.19716 9.23338V9.5266H7.36778V11.6947H7.02933V9.5266H6.19995V9.23338H8.19716ZM8.57917 9.23338H8.91595V11.6947H8.57917V9.23338ZM10.5211 9.16636C10.9556 9.16636 11.2773 9.30599 11.4862 9.58524C11.6493 9.80305 11.7308 10.0817 11.7308 10.4213C11.7308 10.7888 11.6375 11.0943 11.451 11.3378C11.2321 11.6238 10.9199 11.7667 10.5144 11.7667C10.1357 11.7667 9.83804 11.6416 9.62134 11.3914C9.4281 11.1502 9.33147 10.8452 9.33147 10.4766C9.33147 10.1437 9.41413 9.8589 9.57945 9.6221C9.79168 9.31827 10.1056 9.16636 10.5211 9.16636ZM10.5546 11.4685C10.8484 11.4685 11.0606 11.3635 11.1913 11.1535C11.3231 10.9424 11.389 10.7 11.389 10.4263C11.389 10.137 11.313 9.90414 11.1611 9.72766C11.0103 9.55117 10.8037 9.46293 10.5412 9.46293C10.2865 9.46293 10.0788 9.55061 9.9179 9.72598C9.75705 9.90023 9.67663 10.1577 9.67663 10.4984C9.67663 10.7709 9.74532 11.001 9.88272 11.1887C10.0212 11.3752 10.2452 11.4685 10.5546 11.4685ZM12.1296 9.23338H12.5233L13.7665 11.2272V9.23338H14.0832V11.6947H13.7096L12.4479 9.70252V11.6947H12.1296V9.23338Z" fill="black"/>
<path fill-rule="evenodd" clip-rule="evenodd" d="M9.43251 2H0V7.68595H9.43251V2ZM1.37169 3.69756H1.70846V4.7146H2.98855V3.69756H3.32533V6.15888H2.98855V5.00781H1.70846V6.15888H1.37169V3.69756ZM4.20497 3.69756V5.21892C4.20497 5.39764 4.23848 5.54621 4.3055 5.66461C4.40491 5.84333 4.57246 5.93269 4.80815 5.93269C5.09075 5.93269 5.28288 5.83607 5.38453 5.64283C5.43926 5.53783 5.46663 5.39653 5.46663 5.21892V3.69756H5.80508V5.07986C5.80508 5.38257 5.76431 5.61546 5.68277 5.77854C5.53309 6.07567 5.25049 6.22423 4.83496 6.22423C4.41943 6.22423 4.13739 6.07567 3.98883 5.77854C3.90729 5.61546 3.86652 5.38257 3.86652 5.07986V3.69756H4.20497ZM8.14911 3.69756H6.35464V6.15888H8.17425V5.86567H6.67969V5.03127H8.03853V4.74643H6.67969V3.99916H8.14911V3.69756Z" fill="black"/>
</svg>
