<svg width="53" height="36" viewBox="0 0 53 36" fill="none" xmlns="http://www.w3.org/2000/svg">
<path d="M20.2338 6.94675C15.8757 7.53222 12.8124 9.78402 11.0439 13.7021C10.1596 15.6387 9.71752 17.5527 9.71752 19.4442C9.71752 19.6694 9.71752 19.8721 9.71752 20.0522C9.78068 20.1873 9.84384 20.5251 9.907 21.0655H20.2338V35.7923H0.053894V22.2139C0.053894 15.5486 1.91714 10.4145 5.64364 6.81164C9.37013 3.20877 14.2335 1.13711 20.2338 0.59668V6.94675ZM52.1617 6.94675C48.6878 7.35207 46.0351 8.74819 44.2034 11.1351C42.4349 13.522 41.5506 16.2692 41.5506 19.3767C41.5506 19.6469 41.5506 19.9171 41.5506 20.1873C41.6138 20.4575 41.7085 20.7503 41.8349 21.0655H52.1617V35.7923H31.887V22.2139C31.887 16.8547 33.466 12.0808 36.6241 7.89251C39.7821 3.65912 44.9613 1.22718 52.1617 0.59668V6.94675Z" fill="white"/>
</svg>
