<svg width="37" height="37" viewBox="0 0 37 37" fill="none" xmlns="http://www.w3.org/2000/svg">
<path d="M18.3567 36.7134C8.24215 36.7134 0 28.4712 0 18.3567C0 8.24215 8.24215 0 18.3567 0C28.4712 0 36.7134 7.4161 36.7134 16.521C36.7134 22.5971 31.7754 27.535 25.6994 27.535H22.4502C21.9362 27.535 21.5324 27.9389 21.5324 28.4529C21.5324 28.6731 21.6242 28.8751 21.771 29.0586C22.5237 29.9214 22.9459 31.0044 22.9459 32.1242C22.9459 34.6574 20.8899 36.7134 18.3567 36.7134ZM18.3567 3.67134C10.2614 3.67134 3.67134 10.2614 3.67134 18.3567C3.67134 26.452 10.2614 33.042 18.3567 33.042C18.8707 33.042 19.2745 32.6382 19.2745 32.1242C19.2745 31.8305 19.1277 31.6102 19.0175 31.4817C18.2649 30.6373 17.8611 29.5543 17.8611 28.4529C17.8611 25.9196 19.917 23.8637 22.4502 23.8637H25.6994C29.7562 23.8637 33.042 20.5778 33.042 16.521C33.042 9.43534 26.452 3.67134 18.3567 3.67134Z" fill="#FED766"/>
<path d="M8.26051 20.1924C9.78123 20.1924 11.014 18.9596 11.014 17.4389C11.014 15.9181 9.78123 14.6854 8.26051 14.6854C6.73979 14.6854 5.50701 15.9181 5.50701 17.4389C5.50701 18.9596 6.73979 20.1924 8.26051 20.1924Z" fill="#FED766"/>
<path d="M13.7675 12.8497C15.2882 12.8497 16.521 11.6169 16.521 10.0962C16.521 8.57546 15.2882 7.34268 13.7675 7.34268C12.2468 7.34268 11.014 8.57546 11.014 10.0962C11.014 11.6169 12.2468 12.8497 13.7675 12.8497Z" fill="#FED766"/>
<path d="M22.9459 12.8497C24.4666 12.8497 25.6994 11.6169 25.6994 10.0962C25.6994 8.57546 24.4666 7.34268 22.9459 7.34268C21.4251 7.34268 20.1924 8.57546 20.1924 10.0962C20.1924 11.6169 21.4251 12.8497 22.9459 12.8497Z" fill="#FED766"/>
<path d="M28.4529 20.1924C29.9736 20.1924 31.2064 18.9596 31.2064 17.4389C31.2064 15.9181 29.9736 14.6854 28.4529 14.6854C26.9321 14.6854 25.6994 15.9181 25.6994 17.4389C25.6994 18.9596 26.9321 20.1924 28.4529 20.1924Z" fill="#FED766"/>
</svg>
