<svg width="37" height="37" viewBox="0 0 37 37" fill="none" xmlns="http://www.w3.org/2000/svg">
<path d="M7.34268 23.8622C5.81907 23.8622 4.44232 24.4864 3.45106 25.4776C1.28497 27.6437 0 36.7119 0 36.7119C0 36.7119 9.0682 35.4269 11.2343 33.2609C12.2256 32.2696 12.8497 30.8928 12.8497 29.3692C12.8497 26.322 10.3899 23.8622 7.34268 23.8622ZM8.646 30.6726C8.13201 31.1866 4.6626 32.0677 4.6626 32.0677C4.6626 32.0677 5.52536 28.6166 6.05771 28.0843C6.36977 27.7355 6.82869 27.5336 7.34268 27.5336C8.35229 27.5336 9.17834 28.3596 9.17834 29.3692C9.17834 29.8832 8.97642 30.3421 8.646 30.6726ZM28.306 21.3841C39.9809 9.70922 36.0893 0.622659 36.0893 0.622659C36.0893 0.622659 27.0027 -3.26896 15.3278 8.4059L10.757 7.48806C9.56384 7.24943 8.31558 7.63492 7.43446 8.49768L0 15.9505L9.17834 19.8788L16.8331 27.5336L20.7614 36.7119L28.1959 29.2775C29.0586 28.4147 29.4441 27.1664 29.2055 25.9549L28.306 21.3841ZM9.93097 16.2075L6.42484 14.7022L10.0411 11.086L12.6845 11.6183C11.6381 13.1419 10.702 14.739 9.93097 16.2075ZM22.0097 30.2871L20.5044 26.7809C21.973 26.01 23.57 25.0738 25.0752 24.0274L25.6076 26.6708L22.0097 30.2871ZM25.6994 18.7958C23.2763 21.2189 19.4948 23.2014 18.2833 23.8072L12.9048 18.4286C13.4922 17.2355 15.4747 13.454 17.9161 11.0125C26.5071 2.42162 33.0237 3.68823 33.0237 3.68823C33.0237 3.68823 34.2903 10.2049 25.6994 18.7958ZM23.8637 16.5196C25.8829 16.5196 27.535 14.8675 27.535 12.8482C27.535 10.829 25.8829 9.17688 23.8637 9.17688C21.8445 9.17688 20.1924 10.829 20.1924 12.8482C20.1924 14.8675 21.8445 16.5196 23.8637 16.5196Z" fill="#FED766"/>
</svg>
