<svg width="33" height="41" viewBox="0 0 33 41" fill="none" xmlns="http://www.w3.org/2000/svg">
<path d="M21.9841 30.9855H3.66401V9.11339H21.9841V10.9361H25.6481V3.64536C25.6481 1.64041 23.9993 0 21.9841 0H3.66401C1.6488 0 0 1.64041 0 3.64536V36.4536C0 38.4585 1.6488 40.0989 3.66401 40.0989H21.9841C23.9993 40.0989 25.6481 38.4585 25.6481 36.4536V29.1629H21.9841V30.9855ZM3.66401 3.64536H21.9841V5.46804H3.66401V3.64536ZM21.9841 36.4536H3.66401V34.6309H21.9841V36.4536Z" fill="#FED766"/>
<path d="M28.1762 15.7115L29.3121 18.2268L30.4479 15.7115L32.9761 14.5814L30.4479 13.4514L29.3121 10.9361L28.1762 13.4514L25.6481 14.5814L28.1762 15.7115Z" fill="#FED766"/>
<path d="M20.1521 12.7587L17.862 17.7711L12.824 20.0495L17.862 22.3278L20.1521 27.3402L22.4421 22.3278L27.4801 20.0495L22.4421 17.7711L20.1521 12.7587Z" fill="#FED766"/>
<path d="M29.3121 21.8721L28.1762 24.3874L25.6481 25.5175L28.1762 26.6476L29.3121 29.1629L30.4479 26.6476L32.9761 25.5175L30.4479 24.3874L29.3121 21.8721Z" fill="#FED766"/>
</svg>
