<svg width="45" height="41" viewBox="0 0 45 41" fill="none" xmlns="http://www.w3.org/2000/svg">
<path d="M37.8961 11.1386H35.6669V0H8.91674V11.1386H6.68755C2.98711 11.1386 0 14.1237 0 17.8217V31.1881H8.91674V40.0989H35.6669V31.1881H44.5837V17.8217C44.5837 14.1237 41.5966 11.1386 37.8961 11.1386ZM13.3751 4.45544H31.2086V11.1386H13.3751V4.45544ZM31.2086 35.6435H13.3751V26.7326H31.2086V35.6435ZM35.6669 26.7326V22.2772H8.91674V26.7326H4.45837V17.8217C4.45837 16.5965 5.4615 15.594 6.68755 15.594H37.8961C39.1222 15.594 40.1253 16.5965 40.1253 17.8217V26.7326H35.6669Z" fill="#FED766"/>
<path d="M35.6669 21.1633C36.8981 21.1633 37.8961 20.1659 37.8961 18.9356C37.8961 17.7053 36.8981 16.7079 35.6669 16.7079C34.4358 16.7079 33.4378 17.7053 33.4378 18.9356C33.4378 20.1659 34.4358 21.1633 35.6669 21.1633Z" fill="#FED766"/>
</svg>
